<?xml version="1.0" encoding="utf-8"?>
<!-- Generator: Adobe Illustrator 26.0.0, SVG Export Plug-In . SVG Version: 6.00 Build 0)  -->
<svg version="1.1" id="图层_1" xmlns="http://www.w3.org/2000/svg" xmlns:xlink="http://www.w3.org/1999/xlink" x="0px" y="0px"
	 viewBox="0 0 300 300" style="enable-background:new 0 0 300 300;" xml:space="preserve">
<style type="text/css">
	.st0{fill:#4555D2;}
	.st1{fill:#CC2973;}
</style>
<g transform="translate(0.000000,300.000000) scale(0.100000,-0.100000)">
	<path class="st0" d="M1330,2634c-42-20-66-25-99-21c-53,6-86-5-122-39c-15-14-43-27-65-30c-75-10-86-15-126-58c-27-31-52-47-81-55
		c-45-11-72-34-102-88c-10-18-36-39-57-49c-47-21-74-53-83-97c-4-21-24-48-56-77c-44-40-51-51-59-103c-7-42-18-68-39-93
		c-35-39-45-71-38-117c3-22-4-50-24-92c-26-54-28-64-18-99c10-37,9-56-7-149c-4-27-1-51,14-85c15-35,18-62,15-107c-4-54-2-64,24-100
		c22-29,31-56,36-98c5-52,11-64,50-106c32-34,47-60,52-88c7-45,28-72,76-100c17-10,41-38,54-63c28-55,49-74,98-90c25-8,46-25,67-54
		c30-44,57-60,121-70c20-4,47-18,60-32c35-38,72-54,125-54c33,0,61-8,92-26c41-24,51-26,113-20c52,6,75,3,98-8c39-20,84-20,123,0
		c24,12,46,14,94,9c59-6,68-4,118,24c41,24,66,31,105,31c46,0,56,4,94,39c24,22,57,42,77,45c63,13,88,27,115,68c19,28,42,47,81,64
		c50,22,58,30,79,79c16,35,34,59,52,69c44,22,71,57,82,105c6,27,22,57,45,80c41,42,56,78,56,132c0,28,9,51,31,82c29,39,30,46,24,102
		c-5,49-2,69,16,109c21,48,21,50,4,107c-15,48-16,67-7,111c10,49,9,57-15,103c-20,38-27,65-27,111c-1,56-4,65-38,102
		c-27,30-38,53-43,89c-9,58-25,86-65,109c-19,12-36,34-47,64c-21,58-38,77-94,106c-30,15-50,33-58,52c-18,43-49,68-100,82
		c-29,8-55,24-75,47c-36,41-81,63-129,63c-23,0-47,10-72,30c-46,37-73,44-126,36c-31-5-50-1-91,20l-51,26l-62-17c-42-11-69-13-85-7
		C1401,2660,1384,2659,1330,2634z M1444,2568c35-9,56-9,99,2c51,12,58,11,102-10c38-18,56-21,100-16c47,5,57,3,82-18
		c43-36,68-46,113-46c37,0,47-6,80-41c25-28,54-46,91-58c45-15,58-25,79-62c18-31,42-53,78-72c44-24,53-34,63-70c8-29,26-56,59-87
		c40-38,49-53,55-93c5-35,16-59,41-86c30-34,34-44,34-96c0-45,6-69,26-103c25-42,26-48,15-96c-9-43-9-59,5-99c9-26,14-55,11-65
		c-3-9-13-36-21-59c-11-31-13-54-7-87c7-40,5-49-22-91c-20-31-32-63-35-98c-4-42-12-59-42-93c-24-26-41-58-49-91c-10-42-20-55-56-81
		c-27-19-54-50-69-80c-21-41-33-52-71-67c-35-13-56-30-83-67l-36-50l-27,53c-33,63-35,81-14,113c15,23,15,24-18,30
		c-46,9-55,46-26,111c23,52,21,62-11,45c-53-28-82,31-100,198c-11,101-11,138,0,208c10,66,11,99,2,147c-6,34-11,107-10,162
		c0,55-5,113-11,129c-9,22-9,47,0,100c14,87,9,370-7,386c-8,8-16,6-29-7c-21-20-113-160-139-211c-9-17-20-32-25-32s-21,26-37,58
		c-16,31-30,59-31,61c-2,2-11-3-21-13c-18-16-21-14-61,29c-23,25-46,45-52,45c-7,0-9,10-5,25c3,14,9,36,12,50c8,32-4,32-45-2
		c-24-21-34-39-38-70c-6-46-23-49-23-5c0,24-1,25-17,10c-9-10-20-45-25-79c-9-69-15-81-28-59c-43,75-138,205-150,205
		c-24,0-33-94-24-265c4-85,6-173,4-195c-5-69-5-144,2-342c6-172,9-201,34-276l27-85l-75-103c-42-57-83-120-91-141c-15-35-14-37,7-57
		l23-22l27,74c47,130,175,292,285,361c43,27,45,28,78,12c45-22,79-20,119,5c19,11,34,23,34,25s-18,1-40-2c-61-10-107,3-152,44
		c-29,26-39,31-34,17c16-39,18-55,8-55c-6,0-41-24-79-54l-67-55l-19,47c-29,72-49,481-30,611c14,96,13,114-22,386c-5,39-4,39,46-40
		c29-44,47-81,40-83c-6-2,0-25,18-60c15-31,26-63,24-69c-3-7,0-13,7-13c6,0,9,4,6,9c-4,5-1,11,5,13s-2,25-22,56c-17,29-30,55-27,58
		s16-11,28-31c12-19,26-33,31-30c12,8,40,105,33,116c-12,21,8,6,42-28l36-38l-8,30c-12,42-11,122,1,134c7,7,10-12,10-55
		c0-57,3-68,24-85c35-28,53-25,41,7c-17,43-11,49,19,20c16-16,33-44,38-63c10-43,26-47,33-8l5,29l34-52c19-29,37-50,41-45
		c16,18,140,212,151,237c12,26,32,37,24,14c-2-7-14-88-25-180c-20-161-20-172-4-258c10-57,14-118,11-163c-3-46,1-95,11-135
		c13-57,13-71-2-148c-14-69-15-99-7-157c5-40,13-100,16-134c7-63,34-118,65-134c8-4,31-11,50-16l35-9l-43-19c-23-10-41-21-39-24
		c2-4,10-21,18-39c10-25,23-35,54-44l40-11l-30-10c-16-5-31-11-33-12c-1-1,12-35,30-75c26-58,30-74,18-78c-7-3-32-22-55-43
		c-38-35-47-39-97-39c-44,0-63-6-99-29c-41-28-47-29-93-19c-41,8-56,7-101-10c-53-21-55-21-106-3c-32,12-66,17-90,14l-39-6v67v66
		l-37-20c-20-11-39-18-41-16c-2,3,7,24,21,48c34,59,39,90,28,156c-6,31-13,88-17,125c-5,62-8,68-25,63c-66-20-63-22-35,19
		c26,37,38,125,17,125c-16,0-41-49-41-82c0-21-9-41-27-60l-26-27l41-7c23-4,42-8,42-11c0-2,7-67,16-145l15-141l-31-32
		c-31-31-31-45,0-45c25,0,47-22,54-54l7-28l-37,22c-23,15-55,24-88,25c-64,3-57,0-97,36c-39,35-69,49-106,49c-18,0-40,16-74,53
		c-33,37-62,58-90,66c-32,10-44,20-56,49c-19,46-38,68-84,98c-29,18-39,33-48,71c-8,31-25,62-50,88c-32,33-40,49-45,95
		c-4,38-15,68-36,98c-27,39-29,47-24,100c5,48,3,66-15,101c-22,41-22,44-5,93c14,43,15,59,5,104c-11,49-10,56,14,104
		c20,40,26,64,24,102c-3,44,1,55,29,89c22,25,36,56,42,91c8,43,17,59,50,88c25,22,48,55,59,85c15,40,28,55,62,75c25,15,57,46,74,73
		c24,38,39,50,79,63c31,11,65,33,92,60c36,37,48,44,82,44c29,0,53,9,91,35c44,31,58,35,113,35c45,0,72,6,93,19
		C1381,2583,1388,2583,1444,2568z M2093,578c9,0,17-1,17-3c0-6-63-35-77-35c-16,0-16,5-2,31c7,14,16,18,27,13
		C2067,581,2083,578,2093,578z M1328,438c21-21,13-38-17-38c-37,0-50,19-26,37C1308,453,1313,453,1328,438z"/>
	<path class="st0" d="M1207,2068c-15-12-15-21-5-81c10-62,13-68,32-63c12,3,27,6,34,6c17,0,15,19-3,27c-9,3-21-2-29-12
		c-10-15-14-8-24,46c-10,56-10,64,6,75c9,7,14,14,11,14S1216,2074,1207,2068z"/>
	<path class="st0" d="M1721,2026c-18-31-29-61-25-70c3-9,24-21,46-27c47-12,58-3,57,46c-1,28-1,28-13-10c-9-32-13-36-19-21
		c-5,13-14,17-31,12c-12-3-26-3-29,0c-5,6,34,84,53,107c13,15,40-5,41-32c2-26,2-26,6-2c5,25-17,51-43,51
		C1757,2080,1738,2056,1721,2026z"/>
	<path class="st1" d="M1670,1587c0-27,28-57,54-57c10,0,23,14,31,33c13,30,12,32-8,39c-12,3-34,6-49,7
		C1675,1610,1670,1606,1670,1587z"/>
	<path class="st1" d="M1263,1593c-27-5-29-20-7-51c28-40,79-19,72,30C1325,1596,1306,1602,1263,1593z"/>
	<path class="st1" d="M1427,1411c-3-15,4-28,24-45c18-16,29-34,29-50c0-14,5-26,10-26c6,0,10,4,10,9s16,32,35,61s35,54,35,56
		c0,3-19-5-41-17l-41-21l-28,27C1434,1430,1432,1431,1427,1411z"/>
</g>
</svg>
