<?xml version="1.0" encoding="utf-8"?>
<!-- Generator: Adobe Illustrator 26.0.0, SVG Export Plug-In . SVG Version: 6.00 Build 0)  -->
<svg version="1.1" id="图层_1" xmlns="http://www.w3.org/2000/svg" xmlns:xlink="http://www.w3.org/1999/xlink" x="0px" y="0px"
	 viewBox="0 0 270 270" style="enable-background:new 0 0 270 270;" xml:space="preserve">
<style type="text/css">
	.st0{fill:#FFFFFF;stroke:#000000;stroke-miterlimit:10;}
</style>
<g transform="translate(0.000000,270.000000) scale(0.100000,-0.100000)">
	<path d="M1205,2654c-130-14-316-70-440-131c-179-89-374-255-484-413c-100-142-180-327-217-500c-19-91-25-327-12-430
		C125,634,543,189,1090,75c91-20,326-26,433-13c276,36,575,189,763,391c105,114,161,194,224,322c68,139,102,249,126,407
		c76,516-184,1042-646,1305c-189,108-380,161-600,167C1310,2656,1227,2656,1205,2654z M1564,2591l21-22l-60,8c-90,12-321,9-398-5
		c-171-32-376-119-504-216c-56-42-73-51-74-38s-2,12-6-3c-7-27-33-55-51-55c-9,0-13-7-9-20c3-11,2-18-2-15c-5,2-21-9-36-25
		c-21-22-31-27-37-18c-5,9-8,6-8-8c0-27-46-90-53-72c-3,8-6,6-6-6c-1-10-21-50-46-90c-245-394-245-908,0-1302c25-40,46-82,46-95
		c1-17,3-19,6-7c3,13,16,4,52-40c26-31,76-83,111-115c64-60,217-172,235-172c5-1,9-6,8-12s5-17,14-25c15-11,16-11,10,5
		c-7,17,7,24,17,8c4-5,39-22,79-37c39-15,80-37,90-48c15-17,18-18,13-3c-3,9-4,17-2,17c16,0,92-33,98-43c6-9,8-9,8,1c0,6,4,12,9,12
		c6,0,9-9,8-20c-1-12-7-18-13-16c-7,3-29,8-48,12c-20,3-33,10-30,15s-2,6-11,3c-18-7-205,65-205,79c0,6-3,7-7,4
		c-13-14-187,101-282,186c-183,167-314,378-376,609c-135,504,49,1039,464,1347c183,136,326,194,601,245c14,3,99,3,189,1
		C1530,2612,1544,2610,1564,2591z M1600,2590c0-5,6-7,14-4c17,7,166-37,245-72c87-39,212-115,205-125c-3-6,0-18,8-27
		c12-15,11-15-12,1c-53,36-164,100-208,119c-26,11-58,30-72,42c-15,13-19,14-11,4c11-15,6-15-51,4c-34,11-70,27-79,34
		c-19,17-33,18-23,3c5-8,1-8-14,0c-28,15-37,31-18,31C1593,2600,1600,2596,1600,2590z M1535,2559c73-11,78-13,127-65
		c28-30,54-52,57-49c8,8,66-88,121-200c86-176,132-378,144-625l5-105l-14,121c-26,231-77,385-181,555c-60,98-198,249-288,315
		c-63,47-45,29,38-39c63-52,165-173,234-277c95-144,162-341,183-540c11-110,10-314-3-380c-5-25-11-65-13-90c-5-59-29-202-55-320
		c-14-68-20-133-20-231c0-138,7-196,35-294l16-54l89,57c105,67,102,75-30,79l-85,2l-9,105c-4,58-5,143-1,190l7,84l53,22l52,21
		l-25,77c-34,102-39,157-17,166c13,5,15,2,10-15c-5-15-4-19,4-15c7,5,10,0,8-11c-1-10,7-58,17-108c14-66,27-99,47-122
		c15-18,35-48,44-66c9-19,53-71,98-116l82-82l-73-71c-41-38-71-72-69-75c3-2,38,27,79,65c44,41,79,67,88,64c8-2-4,15-26,39
		c-39,41-43,50-53,127c-26,181-109,415-202,565c-20,33-29,57-25,72c5,21,12,17,73-47c38-39,115-107,172-152l104-81l53-109
		c30-60,54-116,54-125s7-24,15-35c17-22,11-35-54-134c-48-72-61-82-61-48c0,28,15,43,23,24c3-7,6-2,6,10c1,28-17,97-65,244
		c-20,59-35,111-35,115c0,5-7,15-15,24s-13,18-11,20s-8,15-21,29l-24,25l22-45c25-48,75-182,91-240c5-19,11-85,14-146l6-111l-91-92
		c-49-50-90-95-90-100c0-25-231-165-276-167c-12,0-52-13-89-28c-66-26-246-69-254-60c-2,2,1,4,9,4c9,0,10,3,1,14s-2,15,38,20
		c28,4,53,11,57,17c4,7,0,9-12,6c-64-18-106-19-126,0c-64,58-85,187-49,316c26,94,99,242,156,317c75,98,177,293,174,333c0,7-3,5-6-3
		c-20-56-67-149-74-144c-5,3-6-3-2-12c4-12,3-15-5-10s-10,1-5-10c5-13,3-15-7-9c-8,5-11,4-6-3c3-5,2-12-3-14c-14-5-162-228-157-237
		c3-4-6-25-19-47c-14-21-25-35-25-30s9,24,21,42c11,19,19,34,16,34c-13,0-121-156-149-216c-29-61-33-78-33-156c0-81,2-89,32-132
		l33-46h-60h-59l-12,43c-26,97,4,189,131,402c43,72,136,241,212,385c16,30,27,63,24,72c-2,10-1,16,4,13c11-7,48,129,58,212
		c4,39,5,70,2,68c-4-3-10-35-13-72c-4-37-13-88-22-113c-9-28-13-34-10-15c19,123,25,188,23,277c-1,56-4,94-8,84c-4-12-11,6-20,53
		c-7,39-17,71-21,71c-5,0-6,7-3,15c4,8,1,15-5,15s-8,7-4,17s2,14-4,10s-19,12-29,36c-26,58-106,178-152,230c-65,71-83,104-103,187
		c-10,44-25,97-34,117c-13,34-6,29,71-52c143-149,218-271,261-426c10-35,25-65,32-67c11-2,12,0,4,10c-6,7-20,45-32,83
		c-39,125-104,244-189,345c-80,96-109,126-127,131c-15,5-48,48-78,103c-32,57-35,75-6,29c11-17,32-39,47-49c20-13,16-6-17,32
		c-24,27-47,48-51,47s-22,17-41,40c-18,23-42,49-54,57c-19,14-17,16,40,26C1225,2572,1440,2573,1535,2559z M1179,2425
		c15-22,28-47,29-55c0-8,17-54,36-102c53-129,88-356,52-342c-8,3-16,30-20,77c-13,137-57,267-137,403c-46,77-92,132-76,92
		c3-10,0-18-8-20c-15-3,27-55,61-74c51-29,133-250,143-386l6-88h-41c-42,0-42,0-49,43c-3,23-13,71-22,107c-8,35-15,80-15,99
		c0,23-3,30-9,20c-7-12-9-12-9,0c0,8-3,12-6,9s-1-23,5-45c11-39,35-144,46-199c6-31,5-31-37-37c-24-2-51-8-60-12c-14-6-18-2-19,16
		c-1,27-27,101-28,81c-1-7,4-34,11-59c10-43,10-47-13-65l-24-19l23,11c13,6,25,10,26,8s10-22,19-46c12-32,13-50,6-69
		c-9-25-10-25-29-8c-22,20-80,130-80,152c0,8-5,11-11,7c-8-4-9,1-4,16c5,14,3,20-3,16c-6-3-13,0-16,6c-3,7-3,2,0-12s24-58,45-98
		c43-81,43-82,29-82c-13,0-57,78-87,157c-15,37-28,62-31,55c-5-17,33-105,74-169c18-28,29-55,26-59c-4-4-2-4,5,0c6,3,14,2,18-4
		c3-5-3-10-14-10c-25,0-104,69-97,85c2,6-2,12-10,12c-19,0-18-5,11-43c33-43,89-77,115-69c17,5,18,10,9,28c-12,22-12,22,9,4
		c15-14,27-17,44-11c13,4,27,7,32,6c5-2,6,3,3,10s-13,31-22,53l-17,40l37-42c20-24,45-43,56-43c16,0,19,7,19,43c0,31,3,38,10,27
		c5-8,10-28,10-43c0-24,3-27,27-24c15,2,29,12,33,22c6,17,8,16,14-8c11-45,42-15,56,56c12,63,14,64,76,40c11-4,15-3,10,5
		c-4,6-22,14-41,18c-35,6-35,6-35,61v54l73-91c170-210,245-415,233-630c-7-136-44-292-88-373c-15-29-164-152-229-190
		c-25-15-60-27-77-27c-35,0-282,120-348,169c-47,35-75,86-155,281c-28,69-66,148-85,176c-42,64-50,85-64,166c-6,34-14,72-17,82
		c-5,18-4,18,23-1c25-17,57-22,98-15c4,1-6,18-24,38c-38,44-32,56,10,21c17-15,37-24,45-21c19,8,19,4-10,44c-34,46-31,56,8,26
		c35-27,72-38,72-21c0,6-4,9-8,7c-12-4-60,24-80,46c-18,20-18,21,10,37c26,15,27,16,3,10c-14-3-31-7-39-8s-31,29-53,70l-39,72l28,15
		c34,17,101,89,125,134c17,31,17,31,52,17c19-8,50-15,67-15c59,0,154,21,179,40l24,18l-17,96c-9,53-28,127-40,164
		c-20,56-28,67-48,70c-36,4-142-68-183-125c-54-75-64-78-163-57c-45,10-83,21-83,24c0,11,155,117,233,160c45,25,132,62,192,82
		l110,38l38-43C1134,2484,1164,2447,1179,2425z M1711,2468c17-31,3-20-37,30c-36,45-36,46-5,17C1687,2499,1706,2477,1711,2468z
		 M1843,2397c44-91,92-214,169-437c44-128,88-233,100-238c5-2,5-9,2-14c-5-7-2-8,6-3c10,6,12,4,7-9c-12-31,155-342,269-502
		c24-34,40-64,36-68s-2-6,3-4c6,2,11-1,13-7c2-5,19-26,39-47c34-35,35-37,23-75c-7-21-15-41-19-45c-11-13-175,140-244,227
		c-86,109-121,162-178,269c-61,115-63,104-3-22c47-102,95-171,179-262c27-30,43-50,35-44c-71,51-166,133-219,190l-64,69l-2,205
		c-1,182-4,220-28,334c-48,225-134,415-267,588l-21,27l60-20l59-20L1843,2397z M2022,2368c32-21,62-47,68-58c11-21,111-412,106-417
		c-1-2-15,29-31,68c-36,92-43,83-9-12c76-213,162-349,347-553c58-63,67-78,61-100c-8-33-14-33-45,0c-13,14-33,30-44,36
		c-11,5,4-12,33-39l53-48l-7-48c-7-47-7-47-28-30l-21,18l21-25c19-23,20-29,10-70l-12-44l-60,79c-81,107-127,175-118,175
		c4,0-2,10-14,23c-36,39-209,354-199,363c3,3,25-23,50-58c52-70,106-136,107-127c0,3-33,48-72,101c-113,150-134,190-217,429
		c-89,256-110,309-148,382c-16,28-30,56-31,60C1816,2486,1959,2411,2022,2368z M978,2373c16-31,52-185,52-224c0-20-6-41-12-47
		c-43-34-228-37-248-3c-8,14-9,14-10-1c0-21-11-23-29-5c-11,10-12,8-3-8c8-16,3-29-28-70c-20-28-54-59-73-70c-36-19-37-19-52,0
		c-41,55-79,209-62,258c8,25,12,26,50,22c23-3,62-11,87-19c40-12,45-17,53-51c11-57,17-55,10,4c-5,43-3,51,11,51c9,0,16-4,16-10
		c0-5,5-10,11-10c5,0,7,4,4,10c-9,14,92,132,140,164C941,2394,966,2397,978,2373z M2266,2219c207-217,325-493,341-804
		c6-97,4-109-9-98c-11,9-17,43-22,115c-20,321-155,605-392,827c-46,42-88,90-94,105c-9,26-5,24,47-22C2169,2315,2227,2259,2266,2219
		z M2235,2187c128-139,229-316,279-489c22-77,32-138,51-307l5-45l-72,79c-147,158-256,326-274,420c-3,19-10,33-14,30c-4-2-5,6-3,18
		s-18,108-44,214l-48,191l27-19C2157,2268,2199,2227,2235,2187z M495,2032c21-65,73-152,89-152c8,0,16-10,20-22c3-13,21-49,40-80
		c28-48,32-59,20-69c-8-6-14-16-14-22c0-5,8-3,18,6c23,21,33,22,25,1c-3-8,4-29,16-45c34-45,5-34-47,19c-49,49-99,135-133,225
		c-15,41-18,44-13,17c7-44,57-155,90-197c25-34,31-58,14-68c-5-3-10-11-10-17c0-5,9,0,21,13c11,13,18,19,15,13c-3-7,5-28,19-48
		c21-31,22-35,6-26c-11,5-21,6-23,1c-4-11-108,66-108,81c0,6,10,3,22-8c18-16,17-13-5,16c-58,79-126,265-127,349c0,18-5,51-11,72
		c-11,36-10,41,17,76l29,38l7-63C476,2107,486,2057,495,2032z M392,2080c-6-57,16-193,41-259c11-31,20-72,18-93c-3-51,25-230,43-270
		c19-44,20-14,1,59c-8,32-17,87-19,123c-3,36-7,74-11,85c-5,16-2,15,12-5c10-14,35-44,56-66c31-34,37-48,37-85c0-69,53-244,71-233
		c7,4,89-144,89-163c0-15-50,62-61,94c-6,18-14,31-19,28c-4-3-6,5-3,17c3,16,2,19-5,10c-10-15-39,48-92,198c-21,58-28,72-24,45
		c13-94,112-301,195-411c21-28,45-68,53-90c7-21,27-68,44-104s35-94,40-130l10-65l1,64l1,64l23-20c12-12,52-37,88-57l67-37l11-62
		c7-34,16-91,21-127l8-65l-1,65c0,36-6,90-13,120s-11,56-10,58c8,8,36-12,42-30c3-11,6-97,6-192c0-107,5-197,14-240
		c13-62,13-72-3-107c-9-22-23-39-31-39c-15,0-15,1,3,105c4,27,4,28-4,5c-6-18-9,1-9,65c-2,133-32,335-61,405c-8,21-10,18-8-25
		c1-27,7-55,13-62c16-17,35-176,40-340c5-158,2-165-53-119c-29,24-29,26-31,135c-1,82-8,134-27,208c-42,159-66,227-76,212
		c-12-19-11-31,2-23c8,4,9-1,4-16c-5-17-4-21,5-15c8,5,11,4,6-3c-4-6,5-51,18-99c34-119,56-243,56-312v-56l-28,34
		c-15,18-42,59-59,90c-33,57-46,65-18,11c9-17,13-30,11-30c-3,0-25,36-50,81l-46,80l14,142c14,144,12,222-6,196c-6-10-8-7-7,11
		c1,14-3,38-9,53c-7,16-12,34-12,41c0,24-80,177-138,263c-66,98-115,190-108,202c3,4-1,8-9,8s-15-2-15-4s19-43,41-91
		c23-48,43-91,46-97c2-5-10,6-27,25s-49,71-71,116c-41,84-46,99-29,89c6-3,10-1,10,5s-6,13-14,16c-19,7-41,67-26,72c5,2,10,8,10,13
		c0,6-4,8-9,4c-6-3-8,10-6,32c4,36,4,37-5,8c-8-25-9-20-5,25c2,34,1,45-4,30c-6-22-8-20-14,20c-4,25-11,104-15,175l-7,130l-6-90
		c-4-75,0-117,27-255c41-214,86-323,172-412c19-20,40-34,46-31s8,3,4-1c-4-5,12-31,35-59c107-131,157-337,119-487l-19-75l-40,85
		c-22,47-43,93-46,103c-10,27-35,32-59,11c-18-17-20-27-15-81c4-51,19-92,80-223c42-88,72-160,68-160c-11,0-94,89-143,155
		c-64,84-207,235-223,235c-8,0-17-4-20-10c-3-5,0-7,7-5c23,9,302-295,286-311c-2-2-40,28-85,66c-189,160-323,376-391,629
		c-23,87-26,114-26,291c-1,169,2,206,21,282c29,114,73,225,125,318l43,75l7-99c4-54,9-101,12-104s3,45-1,106c-6,110-6,112,22,152
		c15,22,28,40,29,40S394,2102,392,2080z M445,1868c8-28,33-85,56-127c26-49,34-69,21-58c-50,45-113,224-111,312c1,35,2,33,10-18
		C426,1946,436,1897,445,1868z M1170,1854c0-54-2-64-13-55c-8,6-16,8-19,6c-6-7-78,71-78,85c0,10,52,28,88,29
		C1169,1920,1170,1916,1170,1854z M1260,1883c0-49-10-84-21-77c-5,3-9,0-9-5c0-25-18-8-23,22c-3,17-9,47-13,65c-6,31-6,32,30,32
		C1259,1920,1260,1919,1260,1883z M1313,1904c10-4,12-13,7-32c-24-90-40-96-40-17C1280,1909,1284,1915,1313,1904z M2606,1225
		c-3-33-13-95-22-138c-13-61-20-77-32-72c-12,4-12,3-3-9c10-11,9-25-4-63c-26-78-67-163-75-158c-5,3-11,28-15,55c-4,28-11,48-15,45
		s-6,5-4,17c2,13,1,17-2,9c-4-9-14,1-28,30c-12,24-30,58-41,74l-19,30l31-28c17-16,35-43,42-60l11-32l-6,30c-8,44,8,22,28-38
		c10-29,15-40,13-25c-3,14-8,34-11,45c-5,12,6,6,29-16c21-19,37-30,37-24c0,7-4,14-9,17s2,40,15,81c13,42,24,87,24,102
		c0,21,2,24,15,13c16-13,21,0,6,16c-5,5-7,31-4,57c5,39,9,47,22,42s14-4,4,6c-7,7-13,28-13,47c0,31,2,33,16,21
		C2609,1288,2611,1274,2606,1225z M2034,1168c-4-6-3-8,3-5c13,8,78-139,111-253c23-82,43-174,55-254c6-37,6-38-13-21
		c-17,15-20,33-22,104l-2,86l-5-75l-6-75l-8,65c-18,147-53,297-86,370c-15,33-9,6,23-100c24-82,41-178,48-267c3-40,2-41-14-26
		c-10,9-18,20-18,25s-13,29-30,53c-18,26-36,71-44,112c-26,121-57,208-68,192c-8-11-9-11-5,3c3,9,9,45,12,80c12,119,13,121,46,55
		C2027,1205,2038,1174,2034,1168z M1940,947c0-7,9-30,20-52s20-42,20-45s-17-12-37-20c-21-8-41-16-44-18c-4-1,1,31,9,73
		c9,41,20,75,24,75S1940,954,1940,947z M1493,803c-46-101-74-136-64-79c1,5-6,17-16,28c-15,17-16,21-3,28c8,4,35,24,60,44
		s46,36,47,36S1507,834,1493,803z M641,749c4-8,45-90,91-184c45-93,109-210,141-259c32-48,56-90,53-93c-2-3-42,13-88,35l-84,39
		l-76,169c-42,93-79,190-82,215C585,744,616,797,641,749z M1390,710c7-16,16-27,21-24c14,8,11-6-12-53c-18-38-39-50-39-22
		c0,6,5,7,11,3c8-4,8,0,0,15c-14,25-23,28-14,4c4-11,3-14-5-9c-16,10-14-5,3-28s19-36,6-36c-11,0-24,33-26,65c-1,11-5,33-10,49
		c-7,24-4,32,16,47C1373,746,1376,745,1390,710z M1168,703c7-18,11-22,11-10c1,9,6,17,11,17c10,0,8-19-13-95c-6-22-12-107-13-190
		c-3-183-2-174-17-150c-12,21-24,411-13,440C1143,738,1157,733,1168,703z M1240,647c14-44,57-124,72-133c6-4,9-3,6,2
		c-2,5-20,43-41,84c-44,89-45,100-10,96c23-3,29-12,54-82c27-76,27-80,10-97c-18-18-19-17-54,23c-33,39-67,114-67,149
		C1210,712,1226,690,1240,647z M1232,585c11-22,34-55,51-72c29-31,30-34,16-62c-8-16-38-55-68-87l-54-59l5,155c5,145,15,216,26,179
		C1210,632,1221,607,1232,585z M775,562c-4-26-10-41-12-34c-3,7-2,34,2,60s10,41,12,34C780,615,779,588,775,562z M1465,601
		c6-10-32-51-48-51c-4,0,1,14,13,30C1453,613,1456,614,1465,601z M1452,543c-5-10-14-39-20-64s-30-74-53-108s-39-64-36-67
		c2-3,19,18,36,47c18,28,35,48,38,45s-1-14-10-24c-18-20-23-37-8-28c5,4,12-13,16-36c8-49,38-113,68-145l20-23h-50c-50,0-52,1-82,47
		c-38,57-38,65-5,109c15,19,24,37,22,40c-3,3-15-9-26-27c-18-29-20-30-26-12c-13,40,33,199,63,217c6,4,8,12,5,18c-4,6-3,8,3,5
		c6-4,19,0,29,8C1461,564,1462,563,1452,543z M2018,390c34,0-12-43-59-55c-21-5-24-2-26,25c-1,17,2,28,7,25s12,0,15,6c4,6,17,8,29,5
		C1995,393,2011,390,2018,390z M1250,334c-14-37-15-121-1-157c14-35,14-37,0-37c-5,0-7,6-3,13c6,9,4,9-7,1c-14-11-109-7-109,5
		c0,5,73,130,110,188C1259,376,1263,370,1250,334z M964,228c33-32,36-38,19-38c-19,0-40,25-87,105l-18,30l23-30
		C914,279,942,248,964,228z M1192,130c21,0,26-4,22-17c-5-16-5-16,5-1c12,17,44,15,70-6c11-8,13-8,8,0c-4,8,27,13,106,17
		c61,3,114,3,116,1c3-2-1-10-8-17c-24-24-373-18-398,7c-11,11,11,27,31,22C1155,133,1177,130,1192,130z"/>
	<path d="M1330,2539c232-195,297-270,389-456c88-176,121-312,121-502c0-71-7-168-16-220c-21-122-11-129,12-9c12,65,18,138,17,243
		c0,128-4,164-26,247c-58,219-165,406-323,562c-52,51-94,98-94,103c0,15-39,38-75,47l-30,6L1330,2539z"/>
	<path d="M1147,2533c-3-5,7-23,23-41c27-33,27-33,25-7C1190,2524,1160,2554,1147,2533z"/>
	<path d="M1258,2483c5-10,7-23,5-30c-2-6,20-29,49-51c69-52,74-57,148-191c113-206,155-270,169-262c27,17-33,140-137,281
		c-92,126-138,177-174,196c-14,7-32,27-40,44c-7,16-16,30-21,30C1253,2500,1253,2492,1258,2483z"/>
	<path d="M1660,2467c0-5,7-15,15-23s21-25,30-36c8-12,17-19,20-17c3,3-11,23-30,45C1676,2457,1661,2471,1660,2467z"/>
	<path d="M1582,2390c77-138,90-160,98-155c5,3-16,45-47,93C1571,2426,1544,2458,1582,2390z"/>
	<path d="M1384,2264c8-17,13-34,11-38c-3-3-2-4,1-1c4,2,15-6,26-18l19-22l-16,31c-10,17-26,41-37,55l-19,24L1384,2264z"/>
	<path d="M1644,2068c13-58,22-84,28-75c4,8,3,29-3,46c-17,49-5,46,21-4c39-75,34-43-6,38C1632,2180,1619,2179,1644,2068z"/>
	<path d="M1537,1825c15-30,29-53,31-51c4,5-46,106-53,106C1512,1880,1522,1855,1537,1825z"/>
	<path d="M1687,1475c3-60,7-112,9-114c7-8,3,133-6,179C1685,1570,1684,1549,1687,1475z"/>
	<path d="M1901,1496c-1-42,2-57,9-50c8,8,8,27,2,60l-10,49L1901,1496z"/>
	<path d="M1878,1125c-4-22-8-51-8-65c1-22,2-23,11-7c5,9,9,39,7,65l-3,47L1878,1125z"/>
	<path d="M1792,1056c-7-26-40-116-73-200c-126-313-154-411-146-511c2-40,1-59-3-45s-9,59-10,100c-2,67-3,72-12,41
		c-20-72,27-225,81-259c14-9,30-22,34-29c11-18,30-16,24,1c-4,11,12,20,61,35c37,11,74,25,82,31c29,19-13,11-80-15
		c-35-14-68-25-72-25c-5,0-16,16-25,35c-12,25-20,32-29,24c-9-7-15-1-22,21c-17,48-25,143-13,170c9,23,10,21,10-17
		c1-51,20-141,30-148c5-2,2,21-5,53c-24,100-19,195,14,297c26,78,29,83,24,40c-18-134,6-300,52-360c9-11,4,11-11,50
		c-25,64-27,81-27,205c1,149,4,162,89,389c25,68,45,133,43,144C1806,1097,1800,1087,1792,1056z"/>
	<path d="M2203,1040c2-8,18-59,36-112c39-122,68-314,52-340c-14-22-14-31-1-23c6,3,10,0,11-7c0-7,5,0,9,15c5,16,7,34,5,40
		c-3,7-9,55-14,108s-14,105-20,115c-5,11-21,57-35,104s-31,92-37,100C2199,1053,2199,1053,2203,1040z"/>
	<path d="M1850,806c0-9-4-15-9-12c-5,4-23-36-40-86c-26-78-31-108-31-190c0-54,4-100,10-103c6-4,10,26,10,82c0,75,36,291,46,280
		c2-2-1-53-6-113c-8-88-7-126,5-188c18-94,18-86,0-86c-10,0-15,16-18,63c-2,39-3,34-1-13c3-94,25-190,43-190c3,0,12,4,20,9
		c12,8,12,18-2,68c-30,106-42,271-30,385c7,57,10,105,7,107C1852,821,1850,816,1850,806z"/>
	<path d="M2400,744c-18-30-30-58-27-61c6-5,67,95,67,110C2440,809,2430,797,2400,744z"/>
	<path d="M1744,601c-7-32-40-65-56-55c-4,3-8,0-8-5c0-13,2-13,33-2c24,10,56,75,43,88C1753,631,1747,619,1744,601z"/>
	<path d="M2071,353c-25-18-66-46-93-60c-42-23-64-53-40-53c10,0,170,105,190,125c11,10,11,13,0,17C2121,385,2095,372,2071,353z"/>
	<path d="M1878,243c-18-5-25-33-9-33c21,0,41,13,41,26C1910,250,1907,251,1878,243z"/>
	<path d="M1106,2339c10-91,25-137,19-57c-3,37-10,78-15,90C1103,2389,1102,2380,1106,2339z"/>
	<path d="M1166,2135c4-33,8-62,10-64c8-9,2,85-7,104C1163,2188,1162,2175,1166,2135z"/>
	<path d="M1206,2115c-3-9-6-30-6-46c0-18-4-28-10-24c-5,3-10-1-10-10c0-12,4-14,19-6c10,6,21,7,25,4c9-10,7,70-3,85
		C1214,2129,1211,2128,1206,2115z"/>
	<path d="M791,2022c0-8,10-41,24-75c13-34,29-84,35-111c13-59,31-95,61-121l23-20l-21,30c-37,54-54,104-42,127c7,12,7,18,1,14
		c-5-3-13,1-16,10c-9,24-7,31,5,14s11-11-15,52c-10,26-23,45-28,42c-6-4-8,3-3,17c4,17,3,20-3,10c-8-11-11-10-15,5
		C795,2026,792,2029,791,2022z"/>
	<path d="M715,1920c7-42,54-140,95-195c31-42,38-61,18-49c-7,4-8,3-4-4c6-10,36-6,36,5c0,3-9,16-20,30c-32,42-23,47,14,9
		c18-20,39-36,47-36c7,0-3,14-24,31c-20,17-49,51-63,75c-15,25-29,43-31,40c-3-3,4-21,15-41c12-19,17-35,12-35c-14,0-49,63-76,137
		C719,1930,712,1942,715,1920z"/>
	<path d="M650,1891c0-16,51-113,57-107c3,2-9,30-26,62C665,1879,651,1899,650,1891z"/>
	<path d="M1255,1681c-46-28-67-57-72-96l-3-34l49,49c38,38,57,50,80,50c16,0,32,4,36,10c6,10,55-8,55-20s-48-32-75-32
		c-15,0-31,5-35,12c-6,10-14,4-30-21c-17-28-20-44-16-88c5-51,30-103,51-105c5-1,10,22,11,49c2,67,10,95,31,112c16,13,16,13-4,3
		c-13-6-23-15-23-19c0-5-8-8-17-6c-10,2-22,4-26,4c-4,1,0,12,10,25c15,20,25,24,58,21c22-2,44-4,49-4c5-1,1-11-10-22
		c-19-22-19-22,3-10c21,11,22,10,13-13c-8-21-6-25,16-30c34-9,30-45-8-59c-23-8-53,16-45,37c4,10,3,15-3,11c-30-18,7-65,50-65
		c27,0,38,13,46,56c9,53,26,68,42,37c13-24,4-43-16-37c-15,5-16,4-1-8c19-15,16-53-6-74c-19-19-19-25-1-18s46,76,46,114
		c0,16-5,41-11,57l-11,28l-31-38c-18-20-35-37-39-37c-13,0-9,75,4,88c22,22,52,12,100-35c26-26,48-42,48-35c0,46-88,135-149,152
		C1363,1706,1288,1702,1255,1681z M1300,1515c-7-8-9-18-7-23c8-12-10-38-20-29c-4,5-1,12,6,16c11,7,10,11-4,18c-16,9-16,11,0,26
		C1295,1543,1317,1535,1300,1515z"/>
	<path d="M750,1476c0-8-7-17-15-20c-20-7-45-67-44-103c0-26,1-25,12,9c14,44,41,78,62,78c8,0,15,4,15,10c0,5,7,7,15,4
		c20-8,19-27-3-47c-23-21-32-21-32-2c0,8-4,15-10,15c-5,0-10-23-10-50c0-57,31-130,55-130c8,0,15-6,15-14c0-19,31-29,44-16
		c8,8,7,11-3,8c-17-4-41,37-41,70c0,13-4,20-10,17c-5-3-10,4-11,17c-1,23-1,23-9-2c-8-24-8-24-9,6c-1,36,21,70,38,60c6-4,9-16,6-27
		c-4-11-3-19,2-18c4,1,13,0,18-1c6-1,16-3,24-4c7,0,17-11,22-24s5-21,1-18c-4,2-16-2-26-10c-17-12-18-14-2-20c28-11,47,15,41,55
		c-6,38-24,56-39,41c-6-6-13-10-16-10c-10,0-2,62,9,69c6,4,0,19-15,39c-18,23-34,32-55,32C761,1490,750,1485,750,1476z"/>
	<path d="M890,1382c0-5,7-22,14-38c8-16,14-50,13-77c-1-26,1-47,6-47c13,0,8,99-7,135C902,1388,890,1400,890,1382z"/>
	<path d="M2090,1617c0-36,166-307,234-382c20-22,3,7-38,65s-102,154-135,215C2117,1575,2090,1621,2090,1617z"/>
	<path d="M1950,2388c1-25,57-121,64-110c4,6-7,36-25,67C1958,2401,1950,2410,1950,2388z"/>
	<path d="M2400,1252c30-28,57-49,59-47c4,4-63,64-93,83C2354,1296,2370,1279,2400,1252z"/>
	<path d="M845,746c-14-15-19-285-7-316c7-18,9-5,5,51c-3,43,0,121,6,174c7,53,11,98,9,100S851,753,845,746z"/>
</g>
<line class="st0" x1="100.9429" y1="159.6454" x2="103" y2="161.0798"/>
<path class="st0" d="M107.8,177.7429c0,0,11.5303,4.3428,26.908-10.2857"/>
</svg>
