<?xml version="1.0" encoding="utf-8"?>
<!-- Generator: Adobe Illustrator 26.0.0, SVG Export Plug-In . SVG Version: 6.00 Build 0)  -->
<svg version="1.1" id="图层_1" xmlns="http://www.w3.org/2000/svg" xmlns:xlink="http://www.w3.org/1999/xlink" x="0px" y="0px"
	 viewBox="0 0 26.04 26.004" style="enable-background:new 0 0 26.04 26.004;" xml:space="preserve">
<style type="text/css">
	.st0{fill:none;stroke:#000000;stroke-width:0.1;stroke-miterlimit:10;}
</style>
<g transform="translate(0.000000,270.000000) scale(0.100000,-0.100000)">
	<path d="M115.993,2699.85c-13-1.4-31.6-7-44-13.1c-17.9-8.9-37.4-25.5-48.4-41.3c-10-14.2-18-32.7-21.7-50
		c-1.9-9.1-2.5-32.7-1.2-43c7.3-54.6,49.1-99.1,103.8-110.5c9.1-2,32.6-2.6,43.3-1.3c27.6,3.6,57.5,18.9,76.3,39.1
		c10.5,11.4,16.1,19.4,22.4,32.2c6.8,13.9,10.2,24.9,12.6,40.7c7.6,51.6-18.4,104.2-64.6,130.5c-18.9,10.8-38,16.1-60,16.7
		C126.493,2700.05,118.193,2700.05,115.993,2699.85z M151.893,2693.55l2.1-2.2l-6,0.8c-9,1.2-32.1,0.9-39.8-0.5
		c-17.1-3.2-37.6-11.9-50.4-21.6c-5.6-4.2-7.3-5.1-7.4-3.8c-0.1,1.3-0.2,1.2-0.6-0.3c-0.7-2.7-3.3-5.5-5.1-5.5c-0.9,0-1.3-0.7-0.9-2
		c0.3-1.1,0.2-1.8-0.2-1.5c-0.5,0.2-2.1-0.9-3.6-2.5c-2.1-2.2-3.1-2.7-3.7-1.8c-0.5,0.9-0.8,0.6-0.8-0.8c0-2.7-4.6-9-5.3-7.2
		c-0.3,0.8-0.6,0.6-0.6-0.6c-0.1-1-2.1-5-4.6-9c-24.5-39.4-24.5-90.8,0-130.2c2.5-4,4.6-8.2,4.6-9.5c0.1-1.7,0.3-1.9,0.6-0.7
		c0.3,1.3,1.6,0.4,5.2-4c2.6-3.1,7.6-8.3,11.1-11.5c6.4-6,21.7-17.2,23.5-17.2c0.5-0.1,0.9-0.6,0.8-1.2c-0.1-0.6,0.5-1.7,1.4-2.5
		c1.5-1.1,1.6-1.1,1,0.5c-0.7,1.7,0.7,2.4,1.7,0.8c0.4-0.5,3.9-2.2,7.9-3.7c3.9-1.5,8-3.7,9-4.8c1.5-1.7,1.8-1.8,1.3-0.3
		c-0.3,0.9-0.4,1.7-0.2,1.7c1.6,0,9.2-3.3,9.8-4.3c0.6-0.9,0.8-0.9,0.8,0.1c0,0.6,0.4,1.2,0.9,1.2c0.6,0,0.9-0.9,0.8-2
		c-0.1-1.2-0.7-1.8-1.3-1.6c-0.7,0.3-2.9,0.8-4.8,1.2c-2,0.3-3.3,1-3,1.5c0.3,0.5-0.2,0.6-1.1,0.3c-1.8-0.7-20.5,6.5-20.5,7.9
		c0,0.6-0.3,0.7-0.7,0.4c-1.3-1.4-18.7,10.1-28.2,18.6c-18.3,16.7-31.4,37.8-37.6,60.9c-13.5,50.4,4.9,103.9,46.4,134.7
		c18.3,13.6,32.6,19.4,60.1,24.5c1.4,0.3,9.9,0.3,18.9,0.1C148.493,2695.65,149.893,2695.45,151.893,2693.55z M155.493,2693.45
		c0-0.5,0.6-0.7,1.4-0.4c1.7,0.7,16.6-3.7,24.5-7.2c8.7-3.9,21.2-11.5,20.5-12.5c-0.3-0.6,0-1.8,0.8-2.7c1.2-1.5,1.1-1.5-1.2,0.1
		c-5.3,3.6-16.4,10-20.8,11.9c-2.6,1.1-5.8,3-7.2,4.2c-1.5,1.3-1.9,1.4-1.1,0.4c1.1-1.5,0.6-1.5-5.1,0.4c-3.4,1.1-7,2.7-7.9,3.4
		c-1.9,1.7-3.3,1.8-2.3,0.3c0.5-0.8,0.1-0.8-1.4,0c-2.8,1.5-3.7,3.1-1.8,3.1C154.793,2694.45,155.493,2694.05,155.493,2693.45z
		 M148.993,2690.35c7.3-1.1,7.8-1.3,12.7-6.5c2.8-3,5.4-5.2,5.7-4.9c0.8,0.8,6.6-8.8,12.1-20c8.6-17.6,13.2-37.8,14.4-62.5l0.5-10.5
		l-1.4,12.1c-2.6,23.1-7.7,38.5-18.1,55.5c-6,9.8-19.8,24.9-28.8,31.5c-6.3,4.7-4.5,2.9,3.8-3.9c6.3-5.2,16.5-17.3,23.4-27.7
		c9.5-14.4,16.2-34.1,18.3-54c1.1-11,1-31.4-0.3-38c-0.5-2.5-1.1-6.5-1.3-9c-0.5-5.9-2.9-20.2-5.5-32c-1.4-6.8-2-13.3-2-23.1
		c0-13.8,0.7-19.6,3.5-29.4l1.6-5.4l8.9,5.7c10.5,6.7,10.2,7.5-3,7.9l-8.5,0.2l-0.9,10.5c-0.4,5.8-0.5,14.3-0.1,19l0.7,8.4l5.3,2.2
		l5.2,2.1l-2.5,7.7c-3.4,10.2-3.9,15.7-1.7,16.6c1.3,0.5,1.5,0.2,1-1.5c-0.5-1.5-0.4-1.9,0.4-1.5c0.7,0.5,1,0,0.8-1.1
		c-0.1-1,0.7-5.8,1.7-10.8c1.4-6.6,2.7-9.9,4.7-12.2c1.5-1.8,3.5-4.8,4.4-6.6c0.9-1.9,5.3-7.1,9.8-11.6l8.2-8.2l-7.3-7.1
		c-4.1-3.8-7.1-7.2-6.9-7.5c0.3-0.2,3.8,2.7,7.9,6.5c4.4,4.1,7.9,6.7,8.8,6.4c0.8-0.2-0.4,1.5-2.6,3.9c-3.9,4.1-4.3,5-5.3,12.7
		c-2.6,18.1-10.9,41.5-20.2,56.5c-2,3.3-2.9,5.7-2.5,7.2c0.5,2.1,1.2,1.7,7.3-4.7c3.8-3.9,11.5-10.7,17.2-15.2l10.4-8.1l5.3-10.9
		c3-6,5.4-11.6,5.4-12.5c0-0.9,0.7-2.4,1.5-3.5c1.7-2.2,1.1-3.5-5.4-13.4c-4.8-7.2-6.1-8.2-6.1-4.8c0,2.8,1.5,4.3,2.3,2.4
		c0.3-0.7,0.6-0.2,0.6,1c0.1,2.8-1.7,9.7-6.5,24.4c-2,5.9-3.5,11.1-3.5,11.5c0,0.5-0.7,1.5-1.5,2.4c-0.8,0.9-1.3,1.8-1.1,2
		s-0.8,1.5-2.1,2.9l-2.4,2.5l2.2-4.5c2.5-4.8,7.5-18.2,9.1-24c0.5-1.9,1.1-8.5,1.4-14.6l0.6-11.1l-9.1-9.2c-4.9-5-9-9.5-9-10
		c0-2.5-23.1-16.5-27.6-16.7c-1.2,0-5.2-1.3-8.9-2.8c-6.6-2.6-24.6-6.9-25.4-6c-0.2,0.2,0.1,0.4,0.9,0.4c0.9,0,1,0.3,0.1,1.4
		c-0.9,1.1-0.2,1.5,3.8,2c2.8,0.4,5.3,1.1,5.7,1.7c0.4,0.7,0,0.9-1.2,0.6c-6.4-1.8-10.6-1.9-12.6,0c-6.4,5.8-8.5,18.7-4.9,31.6
		c2.6,9.4,9.9,24.2,15.6,31.7c7.5,9.8,17.7,29.3,17.4,33.3c0,0.7-0.3,0.5-0.6-0.3c-2-5.6-6.7-14.9-7.4-14.4
		c-0.5,0.3-0.6-0.3-0.2-1.2c0.4-1.2,0.3-1.5-0.5-1c-0.8,0.5-1,0.1-0.5-1c0.5-1.3,0.3-1.5-0.7-0.9c-0.8,0.5-1.1,0.4-0.6-0.3
		c0.3-0.5,0.2-1.2-0.3-1.4c-1.4-0.5-16.2-22.8-15.7-23.7c0.3-0.4-0.6-2.5-1.9-4.7c-1.4-2.1-2.5-3.5-2.5-3s0.9,2.4,2.1,4.2
		c1.1,1.9,1.9,3.4,1.6,3.4c-1.3,0-12.1-15.6-14.9-21.6c-2.9-6.1-3.3-7.8-3.3-15.6c0-8.1,0.2-8.9,3.2-13.2l3.3-4.6h-6h-5.9l-1.2,4.3
		c-2.6,9.7,0.4,18.9,13.1,40.2c4.3,7.2,13.6,24.1,21.2,38.5c1.6,3,2.7,6.3,2.4,7.2c-0.2,1-0.1,1.6,0.4,1.3
		c1.1-0.7,4.8,12.9,5.8,21.2c0.4,3.9,0.5,7,0.2,6.8c-0.4-0.3-1-3.5-1.3-7.2c-0.4-3.7-1.3-8.8-2.2-11.3c-0.9-2.8-1.3-3.4-1-1.5
		c1.9,12.3,2.5,18.8,2.3,27.7c-0.1,5.6-0.4,9.4-0.8,8.4c-0.4-1.2-1.1,0.6-2,5.3c-0.7,3.9-1.7,7.1-2.1,7.1c-0.5,0-0.6,0.7-0.3,1.5
		c0.4,0.8,0.1,1.5-0.5,1.5c-0.6,0-0.8,0.7-0.4,1.7c0.4,1,0.2,1.4-0.4,1c-0.6-0.4-1.9,1.2-2.9,3.6c-2.6,5.8-10.6,17.8-15.2,23
		c-6.5,7.1-8.3,10.4-10.3,18.7c-1,4.4-2.5,9.7-3.4,11.7c-1.3,3.4-0.6,2.9,7.1-5.2c14.3-14.9,21.8-27.1,26.1-42.6
		c1-3.5,2.5-6.5,3.2-6.7c1.1-0.2,1.2,0,0.4,1c-0.6,0.7-2,4.5-3.2,8.3c-3.9,12.5-10.4,24.4-18.9,34.5c-8,9.6-10.9,12.6-12.7,13.1
		c-1.5,0.5-4.8,4.8-7.8,10.3c-3.2,5.7-3.5,7.5-0.6,2.9c1.1-1.7,3.2-3.9,4.7-4.9c2-1.3,1.6-0.6-1.7,3.2c-2.4,2.7-4.7,4.8-5.1,4.7
		s-2.2,1.7-4.1,4c-1.8,2.3-4.2,4.9-5.4,5.7c-1.9,1.4-1.7,1.6,4,2.6C117.993,2691.65,139.493,2691.75,148.993,2690.35z
		 M113.393,2676.95c1.5-2.2,2.8-4.7,2.9-5.5c0-0.8,1.7-5.4,3.6-10.2c5.3-12.9,8.8-35.6,5.2-34.2c-0.8,0.3-1.6,3-2,7.7
		c-1.3,13.7-5.7,26.7-13.7,40.3c-4.6,7.7-9.2,13.2-7.6,9.2c0.3-1,0-1.8-0.8-2c-1.5-0.3,2.7-5.5,6.1-7.4c5.1-2.9,13.3-25,14.3-38.6
		l0.6-8.8h-4.1c-4.2,0-4.2,0-4.9,4.3c-0.3,2.3-1.3,7.1-2.2,10.7c-0.8,3.5-1.5,8-1.5,9.9c0,2.3-0.3,3-0.9,2c-0.7-1.2-0.9-1.2-0.9,0
		c0,0.8-0.3,1.2-0.6,0.9s-0.1-2.3,0.5-4.5c1.1-3.9,3.5-14.4,4.6-19.9c0.6-3.1,0.5-3.1-3.7-3.7c-2.4-0.2-5.1-0.8-6-1.2
		c-1.4-0.6-1.8-0.2-1.9,1.6c-0.1,2.7-2.7,10.1-2.8,8.1c-0.1-0.7,0.4-3.4,1.1-5.9c1-4.3,1-4.7-1.3-6.5l-2.4-1.9l2.3,1.1
		c1.3,0.6,2.5,1,2.6,0.8s1-2.2,1.9-4.6c1.2-3.2,1.3-5,0.6-6.9c-0.9-2.5-1-2.5-2.9-0.8c-2.2,2-8,13-8,15.2c0,0.8-0.5,1.1-1.1,0.7
		c-0.8-0.4-0.9,0.1-0.4,1.6c0.5,1.4,0.3,2-0.3,1.6c-0.6-0.3-1.3,0-1.6,0.6c-0.3,0.7-0.3,0.2,0-1.2c0.3-1.4,2.4-5.8,4.5-9.8
		c4.3-8.1,4.3-8.2,2.9-8.2c-1.3,0-5.7,7.8-8.7,15.7c-1.5,3.7-2.8,6.2-3.1,5.5c-0.5-1.7,3.3-10.5,7.4-16.9c1.8-2.8,2.9-5.5,2.6-5.9
		c-0.4-0.4-0.2-0.4,0.5,0c0.6,0.3,1.4,0.2,1.8-0.4c0.3-0.5-0.3-1-1.4-1c-2.5,0-10.4,6.9-9.7,8.5c0.2,0.6-0.2,1.2-1,1.2
		c-1.9,0-1.8-0.5,1.1-4.3c3.3-4.3,8.9-7.7,11.5-6.9c1.7,0.5,1.8,1,0.9,2.8c-1.2,2.2-1.2,2.2,0.9,0.4c1.5-1.4,2.7-1.7,4.4-1.1
		c1.3,0.4,2.7,0.7,3.2,0.6c0.5-0.2,0.6,0.3,0.3,1c-0.3,0.7-1.3,3.1-2.2,5.3l-1.7,4l3.7-4.2c2-2.4,4.5-4.3,5.6-4.3
		c1.6,0,1.9,0.7,1.9,4.3c0,3.1,0.3,3.8,1,2.7c0.5-0.8,1-2.8,1-4.3c0-2.4,0.3-2.7,2.7-2.4c1.5,0.2,2.9,1.2,3.3,2.2
		c0.6,1.7,0.8,1.6,1.4-0.8c1.1-4.5,4.2-1.5,5.6,5.6c1.2,6.3,1.4,6.4,7.6,4c1.1-0.4,1.5-0.3,1,0.5c-0.4,0.6-2.2,1.4-4.1,1.8
		c-3.5,0.6-3.5,0.6-3.5,6.1v5.4l7.3-9.1c17-21,24.5-41.5,23.3-63c-0.7-13.6-4.4-29.2-8.8-37.3c-1.5-2.9-16.4-15.2-22.9-19
		c-2.5-1.5-6-2.7-7.7-2.7c-3.5,0-28.2,12-34.8,16.9c-4.7,3.5-7.5,8.6-15.5,28.1c-2.8,6.9-6.6,14.8-8.5,17.6c-4.2,6.4-5,8.5-6.4,16.6
		c-0.6,3.4-1.4,7.2-1.7,8.2c-0.5,1.8-0.4,1.8,2.3-0.1c2.5-1.7,5.7-2.2,9.8-1.5c0.4,0.1-0.6,1.8-2.4,3.8c-3.8,4.4-3.2,5.6,1,2.1
		c1.7-1.5,3.7-2.4,4.5-2.1c1.9,0.8,1.9,0.4-1,4.4c-3.4,4.6-3.1,5.6,0.8,2.6c3.5-2.7,7.2-3.8,7.2-2.1c0,0.6-0.4,0.9-0.8,0.7
		c-1.2-0.4-6,2.4-8,4.6c-1.8,2-1.8,2.1,1,3.7c2.6,1.5,2.7,1.6,0.3,1c-1.4-0.3-3.1-0.7-3.9-0.8c-0.8-0.1-3.1,2.9-5.3,7l-3.9,7.2
		l2.8,1.5c3.4,1.7,10.1,8.9,12.5,13.4c1.7,3.1,1.7,3.1,5.2,1.7c1.9-0.8,5-1.5,6.7-1.5c5.9,0,15.4,2.1,17.9,4l2.4,1.8l-1.7,9.6
		c-0.9,5.3-2.8,12.7-4,16.4c-2,5.6-2.8,6.7-4.8,7c-3.6,0.4-14.2-6.8-18.3-12.5c-5.4-7.5-6.4-7.8-16.3-5.7c-4.5,1-8.3,2.1-8.3,2.4
		c0,1.1,15.5,11.7,23.3,16c4.5,2.5,13.2,6.2,19.2,8.2l11,3.8l3.8-4.3C108.893,2682.85,111.893,2679.15,113.393,2676.95z
		 M166.593,2681.25c1.7-3.1,0.3-2-3.7,3c-3.6,4.5-3.6,4.6-0.5,1.7C164.193,2684.35,166.093,2682.15,166.593,2681.25z
		 M179.793,2674.15c4.4-9.1,9.2-21.4,16.9-43.7c4.4-12.8,8.8-23.3,10-23.8c0.5-0.2,0.5-0.9,0.2-1.4c-0.5-0.7-0.2-0.8,0.6-0.3
		c1,0.6,1.2,0.4,0.7-0.9c-1.2-3.1,15.5-34.2,26.9-50.2c2.4-3.4,4-6.4,3.6-6.8c-0.4-0.4-0.2-0.6,0.3-0.4c0.6,0.2,1.1-0.1,1.3-0.7
		c0.2-0.5,1.9-2.6,3.9-4.7c3.4-3.5,3.5-3.7,2.3-7.5c-0.7-2.1-1.5-4.1-1.9-4.5c-1.1-1.3-17.5,14-24.4,22.7
		c-8.6,10.9-12.1,16.2-17.8,26.9c-6.1,11.5-6.3,10.4-0.3-2.2c4.7-10.2,9.5-17.1,17.9-26.2c2.7-3,4.3-5,3.5-4.4
		c-7.1,5.1-16.6,13.3-21.9,19l-6.4,6.9l-0.2,20.5c-0.1,18.2-0.4,22-2.8,33.4c-4.8,22.5-13.4,41.5-26.7,58.8l-2.1,2.7l6-2l5.9-2
		L179.793,2674.15z M197.693,2671.25c3.2-2.1,6.2-4.7,6.8-5.8c1.1-2.1,11.1-41.2,10.6-41.7c-0.1-0.2-1.5,2.9-3.1,6.8
		c-3.6,9.2-4.3,8.3-0.9-1.2c7.6-21.3,16.2-34.9,34.7-55.3c5.8-6.3,6.7-7.8,6.1-10c-0.8-3.3-1.4-3.3-4.5,0c-1.3,1.4-3.3,3-4.4,3.6
		c-1.1,0.5,0.4-1.2,3.3-3.9l5.3-4.8l-0.7-4.8c-0.7-4.7-0.7-4.7-2.8-3l-2.1,1.8l2.1-2.5c1.9-2.3,2-2.9,1-7l-1.2-4.4l-6,7.9
		c-8.1,10.7-12.7,17.5-11.8,17.5c0.4,0-0.2,1-1.4,2.3c-3.6,3.9-20.9,35.4-19.9,36.3c0.3,0.3,2.5-2.3,5-5.8
		c5.2-7,10.6-13.6,10.7-12.7c0,0.3-3.3,4.8-7.2,10.1c-11.3,15-13.4,19-21.7,42.9c-8.9,25.6-11,30.9-14.8,38.2c-1.6,2.8-3,5.6-3.1,6
		C177.093,2683.05,191.393,2675.55,197.693,2671.25z M93.293,2671.75c1.6-3.1,5.2-18.5,5.2-22.4c0-2-0.6-4.1-1.2-4.7
		c-4.3-3.4-22.8-3.7-24.8-0.3c-0.8,1.4-0.9,1.4-1-0.1c0-2.1-1.1-2.3-2.9-0.5c-1.1,1-1.2,0.8-0.3-0.8c0.8-1.6,0.3-2.9-2.8-7
		c-2-2.8-5.4-5.9-7.3-7c-3.6-1.9-3.7-1.9-5.2,0c-4.1,5.5-7.9,20.9-6.2,25.8c0.8,2.5,1.2,2.6,5,2.2c2.3-0.3,6.2-1.1,8.7-1.9
		c4-1.2,4.5-1.7,5.3-5.1c1.1-5.7,1.7-5.5,1,0.4c-0.5,4.3-0.3,5.1,1.1,5.1c0.9,0,1.6-0.4,1.6-1c0-0.5,0.5-1,1.1-1
		c0.5,0,0.7,0.4,0.4,1c-0.9,1.4,9.2,13.2,14,16.4C89.593,2673.85,92.093,2674.15,93.293,2671.75z M222.093,2656.35
		c20.7-21.7,32.5-49.3,34.1-80.4c0.6-9.7,0.4-10.9-0.9-9.8c-1.1,0.9-1.7,4.3-2.2,11.5c-2,32.1-15.5,60.5-39.2,82.7
		c-4.6,4.2-8.8,9-9.4,10.5c-0.9,2.6-0.5,2.4,4.7-2.2C212.393,2665.95,218.193,2660.35,222.093,2656.35z M218.993,2653.15
		c12.8-13.9,22.9-31.6,27.9-48.9c2.2-7.7,3.2-13.8,5.1-30.7l0.5-4.5l-7.2,7.9c-14.7,15.8-25.6,32.6-27.4,42c-0.3,1.9-1,3.3-1.4,3
		c-0.4-0.2-0.5,0.6-0.3,1.8c0.2,1.2-1.8,10.8-4.4,21.4l-4.8,19.1l2.7-1.9C211.193,2661.25,215.393,2657.15,218.993,2653.15z
		 M44.993,2637.65c2.1-6.5,7.3-15.2,8.9-15.2c0.8,0,1.6-1,2-2.2c0.3-1.3,2.1-4.9,4-8c2.8-4.8,3.2-5.9,2-6.9
		c-0.8-0.6-1.4-1.6-1.4-2.2c0-0.5,0.8-0.3,1.8,0.6c2.3,2.1,3.3,2.2,2.5,0.1c-0.3-0.8,0.4-2.9,1.6-4.5c3.4-4.5,0.5-3.4-4.7,1.9
		c-4.9,4.9-9.9,13.5-13.3,22.5c-1.5,4.1-1.8,4.4-1.3,1.7c0.7-4.4,5.7-15.5,9-19.7c2.5-3.4,3.1-5.8,1.4-6.8c-0.5-0.3-1-1.1-1-1.7
		c0-0.5,0.9,0,2.1,1.3c1.1,1.3,1.8,1.9,1.5,1.3c-0.3-0.7,0.5-2.8,1.9-4.8c2.1-3.1,2.2-3.5,0.6-2.6c-1.1,0.5-2.1,0.6-2.3,0.1
		c-0.4-1.1-10.8,6.6-10.8,8.1c0,0.6,1,0.3,2.2-0.8c1.8-1.6,1.7-1.3-0.5,1.6c-5.8,7.9-12.6,26.5-12.7,34.9c0,1.8-0.5,5.1-1.1,7.2
		c-1.1,3.6-1,4.1,1.7,7.6l2.9,3.8l0.7-6.3C43.093,2645.15,44.093,2640.15,44.993,2637.65z M34.693,2642.45
		c-0.6-5.7,1.6-19.3,4.1-25.9c1.1-3.1,2-7.2,1.8-9.3c-0.3-5.1,2.5-23,4.3-27c1.9-4.4,2-1.4,0.1,5.9c-0.8,3.2-1.7,8.7-1.9,12.3
		c-0.3,3.6-0.7,7.4-1.1,8.5c-0.5,1.6-0.2,1.5,1.2-0.5c1-1.4,3.5-4.4,5.6-6.6c3.1-3.4,3.7-4.8,3.7-8.5c0-6.9,5.3-24.4,7.1-23.3
		c0.7,0.4,8.9-14.4,8.9-16.3c0-1.5-5,6.2-6.1,9.4c-0.6,1.8-1.4,3.1-1.9,2.8c-0.4-0.3-0.6,0.5-0.3,1.7c0.3,1.6,0.2,1.9-0.5,1
		c-1-1.5-3.9,4.8-9.2,19.8c-2.1,5.8-2.8,7.2-2.4,4.5c1.3-9.4,11.2-30.1,19.5-41.1c2.1-2.8,4.5-6.8,5.3-9c0.7-2.1,2.7-6.8,4.4-10.4
		c1.7-3.6,3.5-9.4,4-13l1-6.5l0.1,6.4l0.1,6.4l2.3-2c1.2-1.2,5.2-3.7,8.8-5.7l6.7-3.7l1.1-6.2c0.7-3.4,1.6-9.1,2.1-12.7l0.8-6.5
		l-0.1,6.5c0,3.6-0.6,9-1.3,12s-1.1,5.6-1,5.8c0.8,0.8,3.6-1.2,4.2-3c0.3-1.1,0.6-9.7,0.6-19.2c0-10.7,0.5-19.7,1.4-24
		c1.3-6.2,1.3-7.2-0.3-10.7c-0.9-2.2-2.3-3.9-3.1-3.9c-1.5,0-1.5,0.1,0.3,10.5c0.4,2.7,0.4,2.8-0.4,0.5c-0.6-1.8-0.9,0.1-0.9,6.5
		c-0.2,13.3-3.2,33.5-6.1,40.5c-0.8,2.1-1,1.8-0.8-2.5c0.1-2.7,0.7-5.5,1.3-6.2c1.6-1.7,3.5-17.6,4-34c0.5-15.8,0.2-16.5-5.3-11.9
		c-2.9,2.4-2.9,2.6-3.1,13.5c-0.1,8.2-0.8,13.4-2.7,20.8c-4.2,15.9-6.6,22.7-7.6,21.2c-1.2-1.9-1.1-3.1,0.2-2.3
		c0.8,0.4,0.9-0.1,0.4-1.6c-0.5-1.7-0.4-2.1,0.5-1.5c0.8,0.5,1.1,0.4,0.6-0.3c-0.4-0.6,0.5-5.1,1.8-9.9c3.4-11.9,5.6-24.3,5.6-31.2
		v-5.6l-2.8,3.4c-1.5,1.8-4.2,5.9-5.9,9c-3.3,5.7-4.6,6.5-1.8,1.1c0.9-1.7,1.3-3,1.1-3c-0.3,0-2.5,3.6-5,8.1l-4.6,8l1.4,14.2
		c1.4,14.4,1.2,22.2-0.6,19.6c-0.6-1-0.8-0.7-0.7,1.1c0.1,1.4-0.3,3.8-0.9,5.3c-0.7,1.6-1.2,3.4-1.2,4.1c0,2.4-8,17.7-13.8,26.3
		c-6.6,9.8-11.5,19-10.8,20.2c0.3,0.4-0.1,0.8-0.9,0.8s-1.5-0.2-1.5-0.4s1.9-4.3,4.1-9.1c2.3-4.8,4.3-9.1,4.6-9.7
		c0.2-0.5-1,0.6-2.7,2.5c-1.7,1.9-4.9,7.1-7.1,11.6c-4.1,8.4-4.6,9.9-2.9,8.9c0.6-0.3,1-0.1,1,0.5c0,0.6-0.6,1.3-1.4,1.6
		c-1.9,0.7-4.1,6.7-2.6,7.2c0.5,0.2,1,0.8,1,1.3c0,0.6-0.4,0.8-0.9,0.4c-0.6-0.3-0.8,1-0.6,3.2c0.4,3.6,0.4,3.7-0.5,0.8
		c-0.8-2.5-0.9-2-0.5,2.5c0.2,3.4,0.1,4.5-0.4,3c-0.6-2.2-0.8-2-1.4,2c-0.4,2.5-1.1,10.4-1.5,17.5l-0.7,13l-0.6-9
		c-0.4-7.5,0-11.7,2.7-25.5c4.1-21.4,8.6-32.3,17.2-41.2c1.9-2,4-3.4,4.6-3.1c0.6,0.3,0.8,0.3,0.4-0.1c-0.4-0.5,1.2-3.1,3.5-5.9
		c10.7-13.1,15.7-33.7,11.9-48.7l-1.9-7.5l-4,8.5c-2.2,4.7-4.3,9.3-4.6,10.3c-1,2.7-3.5,3.2-5.9,1.1c-1.8-1.7-2-2.7-1.5-8.1
		c0.4-5.1,1.9-9.2,8-22.3c4.2-8.8,7.2-16,6.8-16c-1.1,0-9.4,8.9-14.3,15.5c-6.4,8.4-20.7,23.5-22.3,23.5c-0.8,0-1.7-0.4-2-1
		c-0.3-0.5,0-0.7,0.7-0.5c2.3,0.9,30.2-29.5,28.6-31.1c-0.2-0.2-4,2.8-8.5,6.6c-18.9,16-32.3,37.6-39.1,62.9
		c-2.3,8.7-2.6,11.4-2.6,29.1c-0.1,16.9,0.2,20.6,2.1,28.2c2.9,11.4,7.3,22.5,12.5,31.8l4.3,7.5l0.7-9.9c0.4-5.4,0.9-10.1,1.2-10.4
		c0.3-0.3,0.3,4.5-0.1,10.6c-0.6,11-0.6,11.2,2.2,15.2c1.5,2.2,2.8,4,2.9,4C34.993,2646.45,34.893,2644.65,34.693,2642.45z
		 M39.993,2621.25c0.8-2.8,3.3-8.5,5.6-12.7c2.6-4.9,3.4-6.9,2.1-5.8c-5,4.5-11.3,22.4-11.1,31.2c0.1,3.5,0.2,3.3,1-1.8
		C38.093,2629.05,39.093,2624.15,39.993,2621.25z M112.493,2619.85c0-5.4-0.2-6.4-1.3-5.5c-0.8,0.6-1.6,0.8-1.9,0.6
		c-0.6-0.7-7.8,7.1-7.8,8.5c0,1,5.2,2.8,8.8,2.9C112.393,2626.45,112.493,2626.05,112.493,2619.85z M121.493,2622.75
		c0-4.9-1-8.4-2.1-7.7c-0.5,0.3-0.9,0-0.9-0.5c0-2.5-1.8-0.8-2.3,2.2c-0.3,1.7-0.9,4.7-1.3,6.5c-0.6,3.1-0.6,3.2,3,3.2
		C121.393,2626.45,121.493,2626.35,121.493,2622.75z M126.793,2624.85c1-0.4,1.2-1.3,0.7-3.2c-2.4-9-4-9.6-4-1.7
		C123.493,2625.35,123.893,2625.95,126.793,2624.85z M256.093,2556.95c-0.3-3.3-1.3-9.5-2.2-13.8c-1.3-6.1-2-7.7-3.2-7.2
		c-1.2,0.4-1.2,0.3-0.3-0.9c1-1.1,0.9-2.5-0.4-6.3c-2.6-7.8-6.7-16.3-7.5-15.8c-0.5,0.3-1.1,2.8-1.5,5.5c-0.4,2.8-1.1,4.8-1.5,4.5
		c-0.4-0.3-0.6,0.5-0.4,1.7c0.2,1.3,0.1,1.7-0.2,0.9c-0.4-0.9-1.4,0.1-2.8,3c-1.2,2.4-3,5.8-4.1,7.4l-1.9,3l3.1-2.8
		c1.7-1.6,3.5-4.3,4.2-6l1.1-3.2l-0.6,3c-0.8,4.4,0.8,2.2,2.8-3.8c1-2.9,1.5-4,1.3-2.5c-0.3,1.4-0.8,3.4-1.1,4.5
		c-0.5,1.2,0.6,0.6,2.9-1.6c2.1-1.9,3.7-3,3.7-2.4c0,0.7-0.4,1.4-0.9,1.7c-0.5,0.3,0.2,4,1.5,8.1c1.3,4.2,2.4,8.7,2.4,10.2
		c0,2.1,0.2,2.4,1.5,1.3c1.6-1.3,2.1,0,0.6,1.6c-0.5,0.5-0.7,3.1-0.4,5.7c0.5,3.9,0.9,4.7,2.2,4.2c1.3-0.5,1.4-0.4,0.4,0.6
		c-0.7,0.7-1.3,2.8-1.3,4.7c0,3.1,0.2,3.3,1.6,2.1C256.393,2563.25,256.593,2561.85,256.093,2556.95z M198.893,2551.25
		c-0.4-0.6-0.3-0.8,0.3-0.5c1.3,0.8,7.8-13.9,11.1-25.3c2.3-8.2,4.3-17.4,5.5-25.4c0.6-3.7,0.6-3.8-1.3-2.1c-1.7,1.5-2,3.3-2.2,10.4
		l-0.2,8.6l-0.5-7.5l-0.6-7.5l-0.8,6.5c-1.8,14.7-5.3,29.7-8.6,37c-1.5,3.3-0.9,0.6,2.3-10c2.4-8.2,4.1-17.8,4.8-26.7
		c0.3-4,0.2-4.1-1.4-2.6c-1,0.9-1.8,2-1.8,2.5s-1.3,2.9-3,5.3c-1.8,2.6-3.6,7.1-4.4,11.2c-2.6,12.1-5.7,20.8-6.8,19.2
		c-0.8-1.1-0.9-1.1-0.5,0.3c0.3,0.9,0.9,4.5,1.2,8c1.2,11.9,1.3,12.1,4.6,5.5C198.193,2554.95,199.293,2551.85,198.893,2551.25z
		 M189.493,2529.15c0-0.7,0.9-3,2-5.2c1.1-2.2,2-4.2,2-4.5s-1.7-1.2-3.7-2c-2.1-0.8-4.1-1.6-4.4-1.8c-0.4-0.1,0.1,3.1,0.9,7.3
		c0.9,4.1,2,7.5,2.4,7.5C189.093,2530.45,189.493,2529.85,189.493,2529.15z M144.793,2514.75c-4.6-10.1-7.4-13.6-6.4-7.9
		c0.1,0.5-0.6,1.7-1.6,2.8c-1.5,1.7-1.6,2.1-0.3,2.8c0.8,0.4,3.5,2.4,6,4.4s4.6,3.6,4.7,3.6
		C147.293,2520.45,146.193,2517.85,144.793,2514.75z M59.593,2509.35c0.4-0.8,4.5-9,9.1-18.4c4.5-9.3,10.9-21,14.1-25.9
		c3.2-4.8,5.6-9,5.3-9.3c-0.2-0.3-4.2,1.3-8.8,3.5l-8.4,3.9l-7.6,16.9c-4.2,9.3-7.9,19-8.2,21.5
		C53.993,2508.85,57.093,2514.15,59.593,2509.35z M134.493,2505.45c0.7-1.6,1.6-2.7,2.1-2.4c1.4,0.8,1.1-0.6-1.2-5.3
		c-1.8-3.8-3.9-5-3.9-2.2c0,0.6,0.5,0.7,1.1,0.3c0.8-0.4,0.8,0,0,1.5c-1.4,2.5-2.3,2.8-1.4,0.4c0.4-1.1,0.3-1.4-0.5-0.9
		c-1.6,1-1.4-0.5,0.3-2.8s1.9-3.6,0.6-3.6c-1.1,0-2.4,3.3-2.6,6.5c-0.1,1.1-0.5,3.3-1,4.9c-0.7,2.4-0.4,3.2,1.6,4.7
		C132.793,2509.05,133.093,2508.95,134.493,2505.45z M112.293,2504.75c0.7-1.8,1.1-2.2,1.1-1c0.1,0.9,0.6,1.7,1.1,1.7
		c1,0,0.8-1.9-1.3-9.5c-0.6-2.2-1.2-10.7-1.3-19c-0.3-18.3-0.2-17.4-1.7-15c-1.2,2.1-2.4,41.1-1.3,44
		C109.793,2508.25,111.193,2507.75,112.293,2504.75z M119.493,2499.15c1.4-4.4,5.7-12.4,7.2-13.3c0.6-0.4,0.9-0.3,0.6,0.2
		c-0.2,0.5-2,4.3-4.1,8.4c-4.4,8.9-4.5,10-1,9.6c2.3-0.3,2.9-1.2,5.4-8.2c2.7-7.6,2.7-8,1-9.7c-1.8-1.8-1.9-1.7-5.4,2.3
		c-3.3,3.9-6.7,11.4-6.7,14.9C116.493,2505.65,118.093,2503.45,119.493,2499.15z M118.693,2492.95c1.1-2.2,3.4-5.5,5.1-7.2
		c2.9-3.1,3-3.4,1.6-6.2c-0.8-1.6-3.8-5.5-6.8-8.7l-5.4-5.9l0.5,15.5c0.5,14.5,1.5,21.6,2.6,17.9
		C116.493,2497.65,117.593,2495.15,118.693,2492.95z M72.993,2490.65c-0.4-2.6-1-4.1-1.2-3.4c-0.3,0.7-0.2,3.4,0.2,6s1,4.1,1.2,3.4
		C73.493,2495.95,73.393,2493.25,72.993,2490.65z M141.993,2494.55c0.6-1-3.2-5.1-4.8-5.1c-0.4,0,0.1,1.4,1.3,3
		C140.793,2495.75,141.093,2495.85,141.993,2494.55z M140.693,2488.75c-0.5-1-1.4-3.9-2-6.4c-0.6-2.5-3-7.4-5.3-10.8
		c-2.3-3.4-3.9-6.4-3.6-6.7c0.2-0.3,1.9,1.8,3.6,4.7c1.8,2.8,3.5,4.8,3.8,4.5s-0.1-1.4-1-2.4c-1.8-2-2.3-3.7-0.8-2.8
		c0.5,0.4,1.2-1.3,1.6-3.6c0.8-4.9,3.8-11.3,6.8-14.5l2-2.3h-5c-5,0-5.2,0.1-8.2,4.7c-3.8,5.7-3.8,6.5-0.5,10.9
		c1.5,1.9,2.4,3.7,2.2,4c-0.3,0.3-1.5-0.9-2.6-2.7c-1.8-2.9-2-3-2.6-1.2c-1.3,4,3.3,19.9,6.3,21.7c0.6,0.4,0.8,1.2,0.5,1.8
		c-0.4,0.6-0.3,0.8,0.3,0.5c0.6-0.4,1.9,0,2.9,0.8C141.593,2490.85,141.693,2490.75,140.693,2488.75z M197.293,2473.45
		c3.4,0-1.2-4.3-5.9-5.5c-2.1-0.5-2.4-0.2-2.6,2.5c-0.1,1.7,0.2,2.8,0.7,2.5s1.2,0,1.5,0.6c0.4,0.6,1.7,0.8,2.9,0.5
		C194.993,2473.75,196.593,2473.45,197.293,2473.45z M120.493,2467.85c-1.4-3.7-1.5-12.1-0.1-15.7c1.4-3.5,1.4-3.7,0-3.7
		c-0.5,0-0.7,0.6-0.3,1.3c0.6,0.9,0.4,0.9-0.7,0.1c-1.4-1.1-10.9-0.7-10.9,0.5c0,0.5,7.3,13,11,18.8
		C121.393,2472.05,121.793,2471.45,120.493,2467.85z M91.893,2457.25c3.3-3.2,3.6-3.8,1.9-3.8c-1.9,0-4,2.5-8.7,10.5l-1.8,3l2.3-3
		C86.893,2462.35,89.693,2459.25,91.893,2457.25z M114.693,2447.45c2.1,0,2.6-0.4,2.2-1.7c-0.5-1.6-0.5-1.6,0.5-0.1
		c1.2,1.7,4.4,1.5,7-0.6c1.1-0.8,1.3-0.8,0.8,0c-0.4,0.8,2.7,1.3,10.6,1.7c6.1,0.3,11.4,0.3,11.6,0.1c0.3-0.2-0.1-1-0.8-1.7
		c-2.4-2.4-37.3-1.8-39.8,0.7c-1.1,1.1,1.1,2.7,3.1,2.2C110.993,2447.75,113.193,2447.45,114.693,2447.45z"/>
	<path d="M128.493,2688.35c23.2-19.5,29.7-27,38.9-45.6c8.8-17.6,12.1-31.2,12.1-50.2c0-7.1-0.7-16.8-1.6-22
		c-2.1-12.2-1.1-12.9,1.2-0.9c1.2,6.5,1.8,13.8,1.7,24.3c0,12.8-0.4,16.4-2.6,24.7c-5.8,21.9-16.5,40.6-32.3,56.2
		c-5.2,5.1-9.4,9.8-9.4,10.3c0,1.5-3.9,3.8-7.5,4.7l-3,0.6L128.493,2688.35z"/>
	<path d="M110.193,2687.75c-0.3-0.5,0.7-2.3,2.3-4.1c2.7-3.3,2.7-3.3,2.5-0.7C114.493,2686.85,111.493,2689.85,110.193,2687.75z"/>
	<path d="M121.293,2682.75c0.5-1,0.7-2.3,0.5-3c-0.2-0.6,2-2.9,4.9-5.1c6.9-5.2,7.4-5.7,14.8-19.1c11.3-20.6,15.5-27,16.9-26.2
		c2.7,1.7-3.3,14-13.7,28.1c-9.2,12.6-13.8,17.7-17.4,19.6c-1.4,0.7-3.2,2.7-4,4.4c-0.7,1.6-1.6,3-2.1,3
		C120.793,2684.45,120.793,2683.65,121.293,2682.75z"/>
	<path d="M161.493,2681.15c0-0.5,0.7-1.5,1.5-2.3c0.8-0.8,2.1-2.5,3-3.6c0.8-1.2,1.7-1.9,2-1.7c0.3,0.3-1.1,2.3-3,4.5
		C163.093,2680.15,161.593,2681.55,161.493,2681.15z"/>
	<path d="M153.693,2673.45c7.7-13.8,9-16,9.8-15.5c0.5,0.3-1.6,4.5-4.7,9.3C152.593,2677.05,149.893,2680.25,153.693,2673.45z"/>
	<path d="M133.893,2660.85c0.8-1.7,1.3-3.4,1.1-3.8c-0.3-0.3-0.2-0.4,0.1-0.1c0.4,0.2,1.5-0.6,2.6-1.8l1.9-2.2l-1.6,3.1
		c-1,1.7-2.6,4.1-3.7,5.5l-1.9,2.4L133.893,2660.85z"/>
	<path d="M159.893,2641.25c1.3-5.8,2.2-8.4,2.8-7.5c0.4,0.8,0.3,2.9-0.3,4.6c-1.7,4.9-0.5,4.6,2.1-0.4c3.9-7.5,3.4-4.3-0.6,3.8
		C158.693,2652.45,157.393,2652.35,159.893,2641.25z"/>
	<path d="M149.193,2616.95c1.5-3,2.9-5.3,3.1-5.1c0.4,0.5-4.6,10.6-5.3,10.6C146.693,2622.45,147.693,2619.95,149.193,2616.95z"/>
	<path d="M164.193,2581.95c0.3-6,0.7-11.2,0.9-11.4c0.7-0.8,0.3,13.3-0.6,17.9C163.993,2591.45,163.893,2589.35,164.193,2581.95z"/>
	<path d="M185.593,2584.05c-0.1-4.2,0.2-5.7,0.9-5c0.8,0.8,0.8,2.7,0.2,6l-1,4.9L185.593,2584.05z"/>
	<path d="M183.293,2546.95c-0.4-2.2-0.8-5.1-0.8-6.5c0.1-2.2,0.2-2.3,1.1-0.7c0.5,0.9,0.9,3.9,0.7,6.5l-0.3,4.7L183.293,2546.95z"/>
	<path d="M174.693,2540.05c-0.7-2.6-4-11.6-7.3-20c-12.6-31.3-15.4-41.1-14.6-51.1c0.2-4,0.1-5.9-0.3-4.5c-0.4,1.4-0.9,5.9-1,10
		c-0.2,6.7-0.3,7.2-1.2,4.1c-2-7.2,2.7-22.5,8.1-25.9c1.4-0.9,3-2.2,3.4-2.9c1.1-1.8,3-1.6,2.4,0.1c-0.4,1.1,1.2,2,6.1,3.5
		c3.7,1.1,7.4,2.5,8.2,3.1c2.9,1.9-1.3,1.1-8-1.5c-3.5-1.4-6.8-2.5-7.2-2.5c-0.5,0-1.6,1.6-2.5,3.5c-1.2,2.5-2,3.2-2.9,2.4
		c-0.9-0.7-1.5-0.1-2.2,2.1c-1.7,4.8-2.5,14.3-1.3,17c0.9,2.3,1,2.1,1-1.7c0.1-5.1,2-14.1,3-14.8c0.5-0.2,0.2,2.1-0.5,5.3
		c-2.4,10-1.9,19.5,1.4,29.7c2.6,7.8,2.9,8.3,2.4,4c-1.8-13.4,0.6-30,5.2-36c0.9-1.1,0.4,1.1-1.1,5c-2.5,6.4-2.7,8.1-2.7,20.5
		c0.1,14.9,0.4,16.2,8.9,38.9c2.5,6.8,4.5,13.3,4.3,14.4C176.093,2544.15,175.493,2543.15,174.693,2540.05z"/>
	<path d="M215.793,2538.45c0.2-0.8,1.8-5.9,3.6-11.2c3.9-12.2,6.8-31.4,5.2-34c-1.4-2.2-1.4-3.1-0.1-2.3c0.6,0.3,1,0,1.1-0.7
		c0-0.7,0.5,0,0.9,1.5c0.5,1.6,0.7,3.4,0.5,4c-0.3,0.7-0.9,5.5-1.4,10.8s-1.4,10.5-2,11.5c-0.5,1.1-2.1,5.7-3.5,10.4
		c-1.4,4.7-3.1,9.2-3.7,10C215.393,2539.75,215.393,2539.75,215.793,2538.45z"/>
	<path d="M180.493,2515.05c0-0.9-0.4-1.5-0.9-1.2c-0.5,0.4-2.3-3.6-4-8.6c-2.6-7.8-3.1-10.8-3.1-19c0-5.4,0.4-10,1-10.3
		c0.6-0.4,1,2.6,1,8.2c0,7.5,3.6,29.1,4.6,28c0.2-0.2-0.1-5.3-0.6-11.3c-0.8-8.8-0.7-12.6,0.5-18.8c1.8-9.4,1.8-8.6,0-8.6
		c-1,0-1.5,1.6-1.8,6.3c-0.2,3.9-0.3,3.4-0.1-1.3c0.3-9.4,2.5-19,4.3-19c0.3,0,1.2,0.4,2,0.9c1.2,0.8,1.2,1.8-0.2,6.8
		c-3,10.6-4.2,27.1-3,38.5c0.7,5.7,1,10.5,0.7,10.7C180.693,2516.55,180.493,2516.05,180.493,2515.05z"/>
	<path d="M235.493,2508.85c-1.8-3-3-5.8-2.7-6.1c0.6-0.5,6.7,9.5,6.7,11C239.493,2515.35,238.493,2514.15,235.493,2508.85z"/>
	<path d="M169.893,2494.55c-0.7-3.2-4-6.5-5.6-5.5c-0.4,0.3-0.8,0-0.8-0.5c0-1.3,0.2-1.3,3.3-0.2c2.4,1,5.6,7.5,4.3,8.8
		C170.793,2497.55,170.193,2496.35,169.893,2494.55z"/>
	<path d="M202.593,2469.75c-2.5-1.8-6.6-4.6-9.3-6c-4.2-2.3-6.4-5.3-4-5.3c1,0,17,10.5,19,12.5c1.1,1,1.1,1.3,0,1.7
		C207.593,2472.95,204.993,2471.65,202.593,2469.75z"/>
	<path d="M183.293,2458.75c-1.8-0.5-2.5-3.3-0.9-3.3c2.1,0,4.1,1.3,4.1,2.6C186.493,2459.45,186.193,2459.55,183.293,2458.75z"/>
	<path d="M106.093,2668.35c1-9.1,2.5-13.7,1.9-5.7c-0.3,3.7-1,7.8-1.5,9C105.793,2673.35,105.693,2672.45,106.093,2668.35z"/>
	<path d="M112.093,2647.95c0.4-3.3,0.8-6.2,1-6.4c0.8-0.9,0.2,8.5-0.7,10.4C111.793,2653.25,111.693,2651.95,112.093,2647.95z"/>
	<path d="M116.093,2645.95c-0.3-0.9-0.6-3-0.6-4.6c0-1.8-0.4-2.8-1-2.4c-0.5,0.3-1-0.1-1-1c0-1.2,0.4-1.4,1.9-0.6
		c1,0.6,2.1,0.7,2.5,0.4c0.9-1,0.7,7-0.3,8.5C116.893,2647.35,116.593,2647.25,116.093,2645.95z"/>
	<path d="M74.593,2636.65c0-0.8,1-4.1,2.4-7.5c1.3-3.4,2.9-8.4,3.5-11.1c1.3-5.9,3.1-9.5,6.1-12.1l2.3-2l-2.1,3
		c-3.7,5.4-5.4,10.4-4.2,12.7c0.7,1.2,0.7,1.8,0.1,1.4c-0.5-0.3-1.3,0.1-1.6,1c-0.9,2.4-0.7,3.1,0.5,1.4c1.2-1.7,1.1-1.1-1.5,5.2
		c-1,2.6-2.3,4.5-2.8,4.2c-0.6-0.4-0.8,0.3-0.3,1.7c0.4,1.7,0.3,2-0.3,1c-0.8-1.1-1.1-1-1.5,0.5
		C74.993,2637.05,74.693,2637.35,74.593,2636.65z"/>
	<path d="M66.993,2626.45c0.7-4.2,5.4-14,9.5-19.5c3.1-4.2,3.8-6.1,1.8-4.9c-0.7,0.4-0.8,0.3-0.4-0.4c0.6-1,3.6-0.6,3.6,0.5
		c0,0.3-0.9,1.6-2,3c-3.2,4.2-2.3,4.7,1.4,0.9c1.8-2,3.9-3.6,4.7-3.6c0.7,0-0.3,1.4-2.4,3.1c-2,1.7-4.9,5.1-6.3,7.5
		c-1.5,2.5-2.9,4.3-3.1,4c-0.3-0.3,0.4-2.1,1.5-4.1c1.2-1.9,1.7-3.5,1.2-3.5c-1.4,0-4.9,6.3-7.6,13.7
		C67.393,2627.45,66.693,2628.65,66.993,2626.45z"/>
	<path d="M60.493,2623.55c0-1.6,5.1-11.3,5.7-10.7c0.3,0.2-0.9,3-2.6,6.2C61.993,2622.35,60.593,2624.35,60.493,2623.55z"/>
	<path d="M120.993,2602.55c-4.6-2.8-6.7-5.7-7.2-9.6l-0.3-3.4l4.9,4.9c3.8,3.8,5.7,5,8,5c1.6,0,3.2,0.4,3.6,1c0.6,1,5.5-0.8,5.5-2
		s-4.8-3.2-7.5-3.2c-1.5,0-3.1,0.5-3.5,1.2c-0.6,1-1.4,0.4-3-2.1c-1.7-2.8-2-4.4-1.6-8.8c0.5-5.1,3-10.3,5.1-10.5
		c0.5-0.1,1,2.2,1.1,4.9c0.2,6.7,1,9.5,3.1,11.2c1.6,1.3,1.6,1.3-0.4,0.3c-1.3-0.6-2.3-1.5-2.3-1.9c0-0.5-0.8-0.8-1.7-0.6
		c-1,0.2-2.2,0.4-2.6,0.4c-0.4,0.1,0,1.2,1,2.5c1.5,2,2.5,2.4,5.8,2.1c2.2-0.2,4.4-0.4,4.9-0.4c0.5-0.1,0.1-1.1-1-2.2
		c-1.9-2.2-1.9-2.2,0.3-1c2.1,1.1,2.2,1,1.3-1.3c-0.8-2.1-0.6-2.5,1.6-3c3.4-0.9,3-4.5-0.8-5.9c-2.3-0.8-5.3,1.6-4.5,3.7
		c0.4,1,0.3,1.5-0.3,1.1c-3-1.8,0.7-6.5,5-6.5c2.7,0,3.8,1.3,4.6,5.6c0.9,5.3,2.6,6.8,4.2,3.7c1.3-2.4,0.4-4.3-1.6-3.7
		c-1.5,0.5-1.6,0.4-0.1-0.8c1.9-1.5,1.6-5.3-0.6-7.4c-1.9-1.9-1.9-2.5-0.1-1.8c1.8,0.7,4.6,7.6,4.6,11.4c0,1.6-0.5,4.1-1.1,5.7
		l-1.1,2.8l-3.1-3.8c-1.8-2-3.5-3.7-3.9-3.7c-1.3,0-0.9,7.5,0.4,8.8c2.2,2.2,5.2,1.2,10-3.5c2.6-2.6,4.8-4.2,4.8-3.5
		c0,4.6-8.8,13.5-14.9,15.2C131.793,2605.05,124.293,2604.65,120.993,2602.55z M125.493,2585.95c-0.7-0.8-0.9-1.8-0.7-2.3
		c0.8-1.2-1-3.8-2-2.9c-0.4,0.5-0.1,1.2,0.6,1.6c1.1,0.7,1,1.1-0.4,1.8c-1.6,0.9-1.6,1.1,0,2.6
		C124.993,2588.75,127.193,2587.95,125.493,2585.95z"/>
	<path d="M70.493,2582.05c0-0.8-0.7-1.7-1.5-2c-2-0.7-4.5-6.7-4.4-10.3c0-2.6,0.1-2.5,1.2,0.9c1.4,4.4,4.1,7.8,6.2,7.8
		c0.8,0,1.5,0.4,1.5,1c0,0.5,0.7,0.7,1.5,0.4c2-0.8,1.9-2.7-0.3-4.7c-2.3-2.1-3.2-2.1-3.2-0.2c0,0.8-0.4,1.5-1,1.5c-0.5,0-1-2.3-1-5
		c0-5.7,3.1-13,5.5-13c0.8,0,1.5-0.6,1.5-1.4c0-1.9,3.1-2.9,4.4-1.6c0.8,0.8,0.7,1.1-0.3,0.8c-1.7-0.4-4.1,3.7-4.1,7
		c0,1.3-0.4,2-1,1.7c-0.5-0.3-1,0.4-1.1,1.7c-0.1,2.3-0.1,2.3-0.9-0.2c-0.8-2.4-0.8-2.4-0.9,0.6c-0.1,3.6,2.1,7,3.8,6
		c0.6-0.4,0.9-1.6,0.6-2.7c-0.4-1.1-0.3-1.9,0.2-1.8c0.4,0.1,1.3,0,1.8-0.1c0.6-0.1,1.6-0.3,2.4-0.4c0.7,0,1.7-1.1,2.2-2.4
		c0.5-1.3,0.5-2.1,0.1-1.8c-0.4,0.2-1.6-0.2-2.6-1c-1.7-1.2-1.8-1.4-0.2-2c2.8-1.1,4.7,1.5,4.1,5.5c-0.6,3.8-2.4,5.6-3.9,4.1
		c-0.6-0.6-1.3-1-1.6-1c-1,0-0.2,6.2,0.9,6.9c0.6,0.4,0,1.9-1.5,3.9c-1.8,2.3-3.4,3.2-5.5,3.2
		C71.593,2583.45,70.493,2582.95,70.493,2582.05z"/>
	<path d="M84.493,2572.65c0-0.5,0.7-2.2,1.4-3.8c0.8-1.6,1.4-5,1.3-7.7c-0.1-2.6,0.1-4.7,0.6-4.7c1.3,0,0.8,9.9-0.7,13.5
		C85.693,2573.25,84.493,2574.45,84.493,2572.65z"/>
	<path d="M204.493,2596.15c0-3.6,16.6-30.7,23.4-38.2c2-2.2,0.3,0.7-3.8,6.5c-4.1,5.8-10.2,15.4-13.5,21.5
		C207.193,2591.95,204.493,2596.55,204.493,2596.15z"/>
	<path d="M190.493,2673.25c0.1-2.5,5.7-12.1,6.4-11c0.4,0.6-0.7,3.6-2.5,6.7C191.293,2674.55,190.493,2675.45,190.493,2673.25z"/>
	<path d="M235.493,2559.65c3-2.8,5.7-4.9,5.9-4.7c0.4,0.4-6.3,6.4-9.3,8.3C230.893,2564.05,232.493,2562.35,235.493,2559.65z"/>
	<path d="M79.993,2509.05c-1.4-1.5-1.9-28.5-0.7-31.6c0.7-1.8,0.9-0.5,0.5,5.1c-0.3,4.3,0,12.1,0.6,17.4c0.7,5.3,1.1,9.8,0.9,10
		C81.093,2510.15,80.593,2509.75,79.993,2509.05z"/>
</g>
<line class="st0" x1="9.644" y1="15.52" x2="9.849" y2="15.663"/>
<path class="st0" d="M10.329,17.329c0,0,1.153,0.434,2.691-1.029"/>
</svg>
